<svg width="4406" height="1045" viewBox="0 0 4406 1045" fill="none" xmlns="http://www.w3.org/2000/svg">
<path d="M946.699 523.85C968.145 537.957 981.012 561.722 981.012 587.171V866.698C981.012 883.092 962.362 892.75 948.7 883.441L828.635 792.765C815.958 783.17 808.524 768.301 808.524 752.542C808.524 745.14 802.456 739.167 794.989 739.167C786.538 739.167 777.292 739.167 777.292 739.167H593.367H575.67C568.172 739.167 562.103 745.171 562.103 752.542C562.103 768.301 554.669 783.17 541.992 792.765C503.231 822.059 421.927 883.441 421.927 883.441C408.265 892.75 389.615 883.092 389.615 866.698V587.171C389.615 561.722 402.483 537.957 423.929 523.85C448.933 507.393 464.978 480.546 467.487 450.966L474.382 369.186C483.373 262.497 522.992 160.542 588.569 75.2987L623.041 30.5007C654.336 -10.1669 716.291 -10.1669 747.554 30.5007L782.026 75.2987C847.603 160.542 887.222 262.497 896.214 369.186L903.108 450.966C905.618 480.546 921.631 507.393 946.667 523.85H946.699Z" fill="#4867FF"></path>
<path d="M458.051 78.6351C436.828 114.601 419.099 152.377 405.056 191.456C400.989 202.735 390.346 210.328 378.336 210.328H202.671C187.008 210.328 174.299 223.037 174.299 238.7V935.388C174.299 944.284 170.137 952.672 163.02 958.042L55.4732 1039.28C50.5486 1043 44.5438 1045 38.3801 1045H28.372C12.7086 1045 0 1032.29 0 1016.63V64.3696C0 48.7062 12.7086 35.9976 28.372 35.9976H433.524C455.414 35.9976 469.171 59.7945 458.051 78.6351Z" fill="#4867FF"></path>
<path d="M912.512 78.6351C933.736 114.601 951.464 152.377 965.507 191.456C969.574 202.735 980.217 210.328 992.227 210.328H1167.89C1183.56 210.328 1196.26 223.037 1196.26 238.7V935.388C1196.26 944.284 1200.43 952.672 1207.54 958.042L1315.09 1039.28C1320.01 1043 1326.02 1045 1332.18 1045H1342.19C1357.85 1045 1370.56 1032.29 1370.56 1016.63V64.3696C1370.56 48.7062 1357.85 35.9976 1342.19 35.9976H937.04C915.149 35.9976 901.392 59.7945 912.512 78.6351Z" fill="#4867FF"></path>
<path d="M1620.56 818.819H1727.6V593.24H1898.12V508.346H1727.6V371.474H1950.13V285.087H1620.56V818.819Z" fill="white"></path>
<path d="M2293.45 455.605C2279.19 436.224 2260.19 420.179 2236.49 407.439C2212.79 394.699 2185.11 388.312 2153.53 388.312C2117.34 388.312 2084.59 397.24 2055.26 415.064C2025.94 432.92 2002.74 458.401 1985.68 491.538C1968.59 524.676 1960.07 562.643 1960.07 605.471C1960.07 648.3 1968.62 687.156 1985.68 720.548C2002.74 753.94 2025.94 779.802 2055.26 798.166C2084.56 816.53 2117.06 825.68 2152.77 825.68C2184.38 825.68 2212.28 819.167 2236.49 806.173C2260.7 793.178 2279.7 776.72 2293.45 756.863V818.818H2401.29V395.207H2293.45V455.605ZM2278.17 673.908C2267.97 692.526 2254.22 706.791 2236.87 716.736C2219.52 726.68 2200.93 731.637 2181.05 731.637C2161.16 731.637 2143.46 726.553 2126.37 716.354C2109.27 706.156 2095.52 691.509 2085.06 672.382C2074.61 653.256 2069.4 630.984 2069.4 605.471C2069.4 579.959 2074.61 557.941 2085.06 539.323C2095.52 520.737 2109.15 506.566 2125.99 496.876C2142.79 487.186 2161.16 482.356 2181.05 482.356C2200.93 482.356 2219.52 487.313 2236.87 497.257C2254.18 507.202 2267.97 521.467 2278.17 540.085C2288.37 558.704 2293.45 581.007 2293.45 606.996C2293.45 632.986 2288.34 655.289 2278.17 673.908Z" fill="white"></path>
<path d="M2574.82 395.175H2467.79V818.786H2574.82V395.175Z" fill="white"></path>
<path d="M2522.08 219.319C2503.21 219.319 2487.55 225.324 2475.06 237.302C2462.57 249.28 2456.31 264.213 2456.31 282.037C2456.31 299.86 2462.54 314.793 2475.06 326.771C2487.55 338.749 2503.21 344.754 2522.08 344.754C2540.95 344.754 2556.62 338.781 2569.1 326.771C2581.59 314.793 2587.85 299.892 2587.85 282.037C2587.85 264.181 2581.59 249.28 2569.1 237.302C2556.62 225.324 2540.92 219.319 2522.08 219.319Z" fill="white"></path>
<path d="M2749.19 252.965H2642.15V535.891V818.817H2749.19V252.965Z" fill="white"></path>
<path d="M2960.24 818.819H3067.28V593.24H3237.8V508.346H3067.28V371.474H3289.81V285.087H2960.24V818.819Z" fill="white"></path>
<path d="M3633.13 455.605C3618.87 436.224 3599.87 420.179 3576.17 407.439C3552.47 394.699 3524.79 388.312 3493.21 388.312C3457.02 388.312 3424.27 397.24 3394.94 415.064C3365.62 432.92 3342.42 458.401 3325.36 491.538C3308.27 524.676 3299.75 562.643 3299.75 605.471C3299.75 648.3 3308.3 687.156 3325.36 720.548C3342.42 753.94 3365.62 779.802 3394.94 798.166C3424.24 816.53 3456.74 825.68 3492.45 825.68C3524.06 825.68 3551.96 819.167 3576.17 806.173C3600.38 793.178 3619.38 776.72 3633.13 756.863V818.818H3740.97V395.207H3633.13V455.605ZM3617.85 673.908C3607.65 692.526 3593.9 706.791 3576.55 716.736C3559.2 726.68 3540.61 731.637 3520.73 731.637C3500.84 731.637 3483.14 726.553 3466.05 716.354C3448.95 706.156 3435.2 691.509 3424.74 672.382C3414.29 653.256 3409.08 630.984 3409.08 605.471C3409.08 579.959 3414.29 557.941 3424.74 539.323C3435.2 520.737 3448.83 506.566 3465.67 496.876C3482.47 487.186 3500.84 482.356 3520.73 482.356C3540.61 482.356 3559.2 487.313 3576.55 497.257C3593.86 507.202 3607.65 521.467 3617.85 540.085C3628.05 558.704 3633.13 581.007 3633.13 606.996C3633.13 632.986 3628.02 655.289 3617.85 673.908Z" fill="white"></path>
<path d="M4062.11 592.477C4042.23 584.343 4017 576.432 3986.4 568.775C3956.31 561.118 3934.14 553.62 3919.87 546.217C3905.61 538.846 3898.46 528.012 3898.46 513.715C3898.46 500.975 3903.67 491.03 3914.12 483.881C3924.57 476.733 3939.48 473.174 3958.86 473.174C3979.76 473.174 3996.44 478.131 4008.93 488.075C4021.42 498.02 4028.44 511.396 4029.96 528.235H4132.43C4129.37 485.407 4112.79 451.379 4082.73 426.152C4052.65 400.926 4012.39 388.312 3961.91 388.312C3927.75 388.312 3898.05 393.936 3872.82 405.12C3847.59 416.335 3828.21 431.617 3814.71 450.998C3801.21 470.379 3794.44 491.793 3794.44 515.24C3794.44 543.803 3801.71 566.488 3816.23 583.295C3830.75 600.102 3848.1 612.62 3868.24 620.754C3888.39 628.919 3914.25 636.798 3945.86 644.455C3976.46 652.621 3998.73 660.119 4012.77 667.013C4026.78 673.907 4033.81 684.233 4033.81 697.99C4033.81 710.731 4028.09 721.184 4016.59 729.349C4005.12 737.514 3989.17 741.581 3968.8 741.581C3948.44 741.581 3930.45 736.243 3916.41 725.536C3902.37 714.829 3894.36 701.326 3892.33 684.996H3784.49C3786.02 710.985 3794.82 734.687 3810.86 756.101C3826.91 777.515 3848.7 794.481 3876.25 806.935C3903.76 819.421 3934.87 825.68 3969.53 825.68C4004.19 825.68 4032.63 820.184 4057.86 809.255C4083.08 798.293 4102.46 783.138 4115.97 763.758C4129.47 744.377 4136.24 722.454 4136.24 697.99C4135.73 669.968 4128.2 647.41 4113.68 630.317C4099.16 613.255 4081.94 600.61 4062.05 592.477H4062.11Z" fill="white"></path>
<path d="M4405.44 483.119V395.175H4310.63V290.424H4202.8V395.175H4152.35V483.119H4202.8V687.283C4202.8 774.973 4247.92 818.817 4338.15 818.817H4405.44V728.586H4355.75C4339.42 728.586 4327.85 725.409 4320.96 719.023C4314.06 712.668 4310.63 702.343 4310.63 688.046V483.119H4405.44Z" fill="white"></path>
</svg>